<?xml version="1.0" encoding="UTF-8" standalone="no"?>
<!-- Created with Inkscape (http://www.inkscape.org/) -->

<svg
   width="500"
   height="500"
   viewBox="0 0 132.29167 132.29167"
   version="1.1"
   id="svg5"
   inkscape:version="1.1.2 (0a00cf5339, 2022-02-04)"
   sodipodi:docname="logo.svg"
   xmlns:inkscape="http://www.inkscape.org/namespaces/inkscape"
   xmlns:sodipodi="http://sodipodi.sourceforge.net/DTD/sodipodi-0.dtd"
   xmlns="http://www.w3.org/2000/svg"
   xmlns:svg="http://www.w3.org/2000/svg">
  <sodipodi:namedview
     id="namedview7"
     pagecolor="#505050"
     bordercolor="#ffffff"
     borderopacity="1"
     inkscape:pageshadow="0"
     inkscape:pageopacity="0"
     inkscape:pagecheckerboard="1"
     inkscape:document-units="px"
     showgrid="false"
     inkscape:zoom="1.5554293"
     inkscape:cx="263.91428"
     inkscape:cy="291.88083"
     inkscape:window-width="2560"
     inkscape:window-height="1412"
     inkscape:window-x="0"
     inkscape:window-y="0"
     inkscape:window-maximized="1"
     inkscape:current-layer="layer1"
     units="px"
     width="500px" />
  <defs
     id="defs2" />
  <g
     inkscape:label="Layer 1"
     inkscape:groupmode="layer"
     id="layer1">
    <path
       style="fill:#1b91d6;fill-opacity:1;stroke-width:0.484662"
       d="m 11.568587,131.48056 c -0.443403,-0.43594 -0.708149,-1.13865 -0.588411,-1.56177 0.119386,-0.42283 4.756151,-13.05148 10.303142,-28.06312 5.546937,-15.011592 10.085428,-27.570878 10.085428,-27.90949 0,-0.611504 -3.628988,-3.596188 -21.008233,-17.278453 C 5.3808196,52.747241 1.0315226,49.191985 0.69545373,48.767049 -0.11807583,47.738431 -0.07987242,46.027183 0.77225814,45.332076 1.5459925,44.700774 7.762607,44.490262 28.680368,44.386904 L 42.367266,44.319264 50.85293,23.3028 C 59.121406,2.8243333 60.460953,0.12395189 62.350769,0.12395189 c 1.830305,0 2.233225,0.95493551 17.336503,41.08634111 7.450668,19.797496 11.158651,29.766456 19.929234,53.580416 4.428964,12.025561 8.702454,23.559021 9.496654,25.629921 0.79427,2.07086 1.44404,4.07116 1.44404,4.44501 0,0.37406 0.22011,0.67973 0.48896,0.67973 0.31999,0 0.48895,-9.01817 0.48895,-26.093441 0,-19.654186 0.14485,-26.235778 0.58654,-26.670081 0.80685,-0.793121 11.21811,-0.793121 12.0249,0 0.44345,0.435904 0.58652,7.59947 0.58652,29.296172 0,27.90228 -0.0283,28.73366 -0.94551,29.21694 -0.58592,0.30819 -6.04968,0.49719 -14.36591,0.49719 -12.075646,0 -13.520389,-0.0847 -14.417695,-0.84093 -0.665402,-0.56129 -3.874828,-8.91212 -9.645779,-25.10834 -4.75494,-13.344748 -8.073157,-23.55526 -8.796279,-24.431249 -0.24076,-0.291062 -10.532924,5.677054 -14.641643,8.485388 -10.922687,7.465755 -26.902903,21.368261 -41.448535,36.059381 -3.656605,3.69321 -6.636321,6.31631 -7.175098,6.31631 -0.506906,0 -1.284186,-0.35638 -1.72754,-0.79241 z M 65.99948,48.469623 C 63.621231,41.361727 61.675352,35.252862 61.675352,34.894331 57.521782,46.951208 50.871944,65.234262 47.08221,77.491204 c 0.09726,0 5.515763,-2.348742 12.041983,-5.219308 17.406192,-7.257967 13.955237,-2.308463 6.875287,-23.802273 z m 50.61812,16.159721 c -0.29608,-0.194044 -1.02509,-1.801186 -1.61986,-3.571152 -1.61452,-4.804645 -2.74438,-6.156313 -6.65896,-7.966119 -5.48803,-2.537333 -5.83242,-2.744133 -6.00084,-3.603901 -0.12057,-0.616711 0.9909,-1.359039 4.49565,-3.001741 5.25763,-2.464374 5.99242,-3.240386 8.01862,-8.468421 1.02224,-2.63754 1.62375,-3.571714 2.36859,-3.678645 1.34652,-0.193442 1.81867,0.510254 3.04099,4.53051 0.57268,1.884317 1.42829,3.8941 1.90084,4.46609 0.47281,0.572078 2.94894,1.864238 5.503,2.871551 5.71789,2.255113 5.9304,2.903901 1.71082,5.224078 -4.22339,2.32226 -6.88118,5.077816 -8.91286,9.240655 -1.58738,3.252472 -2.3391,4.310121 -3.06315,4.310121 -0.13448,0 -0.48665,-0.158704 -0.78285,-0.352879 z"
       id="path836"
       sodipodi:nodetypes="cssssssscssssssssssscssssssscccccccsssssscsssssss" />
  </g>
</svg>
