<?xml version="1.0" encoding="UTF-8" standalone="no"?>
<!-- Created with Inkscape (http://www.inkscape.org/) -->

<svg
   width="16"
   height="16"
   viewBox="0 0 4.2333333 4.2333333"
   version="1.1"
   id="svg5"
   inkscape:version="1.1.2 (0a00cf5339, 2022-02-04)"
   sodipodi:docname="favicon.svg"
   xmlns:inkscape="http://www.inkscape.org/namespaces/inkscape"
   xmlns:sodipodi="http://sodipodi.sourceforge.net/DTD/sodipodi-0.dtd"
   xmlns="http://www.w3.org/2000/svg"
   xmlns:svg="http://www.w3.org/2000/svg">
  <sodipodi:namedview
     id="namedview7"
     pagecolor="#505050"
     bordercolor="#ffffff"
     borderopacity="1"
     inkscape:pageshadow="0"
     inkscape:pageopacity="0"
     inkscape:pagecheckerboard="1"
     inkscape:document-units="mm"
     showgrid="false"
     inkscape:zoom="35.195347"
     inkscape:cx="10.413308"
     inkscape:cy="13.098322"
     inkscape:window-width="2560"
     inkscape:window-height="1412"
     inkscape:window-x="0"
     inkscape:window-y="0"
     inkscape:window-maximized="1"
     inkscape:current-layer="layer1"
     units="px" />
  <defs
     id="defs2" />
  <g
     inkscape:label="Layer 1"
     inkscape:groupmode="layer"
     id="layer1">
    <path
       style="fill:#1b91d6;fill-opacity:1;stroke-width:0.0150787"
       d="M 0.3986455,4.1542549 C 0.38496792,4.1405773 0.3768009,4.1185253 0.38049466,4.1052491 0.38417736,4.0919815 0.52720908,3.6957132 0.69831887,3.2246705 0.86942694,2.7536295 1.0094272,2.359538 1.0094272,2.3489129 1.0094272,2.3297248 0.89748267,2.2360699 0.36137968,1.806741 0.20776951,1.6837221 0.07360538,1.5721635 0.06323856,1.5588297 0.03814336,1.5265532 0.03932183,1.4728568 0.06560777,1.4510454 0.0894754,1.4312361 0.28124125,1.4246305 0.92649799,1.4213873 L 1.348702,1.4192636 1.610462,0.75979855 C 1.8655222,0.11721511 1.9068436,0.03248121 1.9651394,0.03248121 c 0.05646,0 0.068889,0.02996444 0.5347846,1.28922749 0.229833,0.6212157 0.3442143,0.9340266 0.6147633,1.6812728 0.1366218,0.3773436 0.2684475,0.7392462 0.2929462,0.8042276 0.024501,0.064981 0.044545,0.1277474 0.044545,0.1394784 0,0.011736 0.00679,0.02133 0.015084,0.02133 0.00987,0 0.015084,-0.2829765 0.015084,-0.8187727 0,-0.6167188 0.00447,-0.8232392 0.018094,-0.836867 0.024888,-0.024887 0.3460489,-0.024887 0.3709357,0 0.013678,0.013678 0.018094,0.2384599 0.018094,0.9192697 0,0.8755314 -8.905e-4,0.9016186 -0.029167,0.9167834 -0.018073,0.00967 -0.1866166,0.015601 -0.4431498,0.015601 -0.3725011,0 -0.4170675,-0.00264 -0.444747,-0.026387 C 2.9518766,4.1200326 2.8528744,3.8579961 2.6748561,3.3497833 2.528179,2.9310452 2.4258209,2.6106547 2.4035145,2.5831675 2.3960877,2.5740344 2.0786021,2.7613049 1.9518592,2.8494262 1.6149236,3.0836903 1.1219769,3.5199297 0.67328321,3.9809153 0.56048677,4.0968028 0.46857055,4.1791116 0.45195073,4.1791116 c -0.0156368,0 -0.0396137,-0.011183 -0.05329,-0.024866 z M 2.0776923,1.5494969 C 2.0043297,1.3264618 1.9443046,1.1347749 1.9443046,1.1235247 1.8161781,1.5018513 1.6110485,2.075546 1.4941454,2.4601504 c 0.003,0 0.1701464,-0.0737 0.3714628,-0.1637741 0.5369342,-0.227744 0.4304816,-0.072436 0.2120841,-0.7468794 z m 1.561433,0.5070677 C 3.6299922,2.0504758 3.6075044,2.0000461 3.5891571,1.9445072 3.5393534,1.7937447 3.5045002,1.7513314 3.3837461,1.6945424 3.2144547,1.6149247 3.2038313,1.6084357 3.1986362,1.5814574 3.1949167,1.562106 3.2292027,1.5388129 3.337315,1.4872673 3.4994988,1.409939 3.5221651,1.3855889 3.5846674,1.221541 c 0.031534,-0.082762 0.050089,-0.112075 0.073065,-0.1154303 0.041537,-0.00607 0.056101,0.016011 0.093806,0.1421606 0.017667,0.059127 0.044059,0.122191 0.058636,0.1401391 0.014586,0.017951 0.090967,0.058497 0.1697528,0.090105 0.1763814,0.070762 0.1829371,0.09112 0.052774,0.1639237 -0.1302799,0.072869 -0.2122657,0.1593342 -0.2749373,0.2899578 -0.048967,0.1020577 -0.072155,0.1352451 -0.09449,0.1352451 -0.00415,0 -0.015013,-0.00498 -0.02415,-0.011073 z"
       id="path836"
       sodipodi:nodetypes="cssssssscssssssssssscssssssscccccccsssssscsssssss" />
  </g>
</svg>
