<?xml version="1.0" encoding="UTF-8" standalone="no"?>
<!-- Created with Inkscape (http://www.inkscape.org/) -->

<svg
   viewBox="0 0 12.7 15.874996"
   version="1.1"
   id="svg5"
   inkscape:version="1.1.2 (0a00cf5339, 2022-02-04)"
   sodipodi:docname="ai-book.svg"
   xmlns:inkscape="http://www.inkscape.org/namespaces/inkscape"
   xmlns:sodipodi="http://sodipodi.sourceforge.net/DTD/sodipodi-0.dtd"
   xmlns="http://www.w3.org/2000/svg"
   xmlns:svg="http://www.w3.org/2000/svg">
  <sodipodi:namedview
     id="namedview7"
     pagecolor="#505050"
     bordercolor="#ffffff"
     borderopacity="1"
     inkscape:pageshadow="0"
     inkscape:pageopacity="0"
     inkscape:pagecheckerboard="1"
     inkscape:document-units="mm"
     showgrid="false"
     inkscape:zoom="6.2217172"
     inkscape:cx="28.046919"
     inkscape:cy="35.761831"
     inkscape:window-width="1814"
     inkscape:window-height="1081"
     inkscape:window-x="382"
     inkscape:window-y="191"
     inkscape:window-maximized="0"
     inkscape:current-layer="layer2"
     units="px" />
  <defs
     id="defs2">
    <filter
       inkscape:collect="always"
       style="color-interpolation-filters:sRGB"
       id="filter2580"
       x="-0.00067464505"
       y="-0.00067477517"
       width="1.0013493"
       height="1.0013496">
      <feGaussianBlur
         inkscape:collect="always"
         stdDeviation="0.0021109417"
         id="feGaussianBlur2582" />
    </filter>
  </defs>
  <g
     inkscape:groupmode="layer"
     id="layer2"
     inkscape:label="Layer 2">
    <rect
       style="fill:#000000;stroke-width:0.265;stroke-miterlimit:4;stroke-dasharray:none;stroke:#006ab3;stroke-opacity:1"
       id="rect2585"
       width="12.73008"
       height="15.898533"
       x="-0.0056859744"
       y="-0.0077587189" />
  </g>
  <g
     inkscape:label="Layer 1"
     inkscape:groupmode="layer"
     id="layer1"
     style="filter:url(#filter2580)">
    <path
       style="fill:#1b91d6;fill-opacity:1;stroke-width:0.0275362"
       d="m 3.3576188,11.098634 c -0.02519,-0.02477 -0.04024,-0.06469 -0.03343,-0.08873 0.0068,-0.02403 0.270222,-0.741524 0.585375,-1.5944142 0.315151,-0.8528877 0.573007,-1.5664474 0.573007,-1.5856853 0,-0.034743 -0.206182,-0.204319 -1.193589,-0.9816806 -0.282922,-0.2227436 -0.530029,-0.4247364 -0.549123,-0.4488794 -0.04622,-0.058441 -0.04405,-0.1556662 0.0043,-0.1951588 0.04396,-0.035867 0.397159,-0.047828 1.585608,-0.0537 l 0.777625,-0.00384 0.482115,-1.1940565 c 0.469776,-1.1634899 0.545882,-1.3169129 0.653253,-1.3169129 0.103989,0 0.126881,0.054255 0.984978,2.3343322 0.423312,1.1248005 0.633982,1.6911898 1.132285,3.0441872 0.251633,0.6832352 0.494433,1.3385123 0.539556,1.4561713 0.04513,0.117657 0.08204,0.231304 0.08204,0.252545 0,0.02125 0.01251,0.03862 0.02778,0.03862 0.01818,0 0.02778,-0.512369 0.02778,-1.4825059 0,-1.1166583 0.0082,-1.4905932 0.03333,-1.5152684 0.04584,-0.045063 0.63736,-0.045063 0.683198,0 0.0252,0.024768 0.03332,0.4317662 0.03332,1.6644706 0,1.5852767 -0.0016,1.6325117 -0.05372,1.6599687 -0.03329,0.01751 -0.343715,0.02825 -0.816203,0.02825 -0.686082,0 -0.768166,-0.0048 -0.819146,-0.04778 -0.0378,-0.03189 -0.22015,-0.506344 -0.548028,-1.4265373 -0.270153,-0.7581858 -0.458678,-1.3382989 -0.499762,-1.3880686 -0.01368,-0.016537 -0.598432,0.3225432 -0.83187,0.4820996 -0.620575,0.424169 -1.528496,1.2140446 -2.35491,2.0487243 -0.207751,0.209831 -0.377044,0.358863 -0.407656,0.358863 -0.0288,0 -0.07296,-0.02025 -0.09815,-0.04502 z M 6.4501248,6.3823443 C 6.3150038,5.9785071 6.2044488,5.63143 6.2044488,5.6110601 c -0.235987,0.6850149 -0.613799,1.723772 -0.829114,2.4201534 0.0055,0 0.31338,-0.1334445 0.684169,-0.2965365 0.988938,-0.4123634 0.79287,-0.1311557 0.390621,-1.3523327 z m 2.875883,0.9181193 C 9.3091878,7.2894406 9.2677678,7.1981286 9.2339778,7.0975674 9.1422478,6.82459 9.0780558,6.7477948 8.8556478,6.6449701 8.5438438,6.5008107 8.5242768,6.4890613 8.5147078,6.4402132 c -0.0069,-0.035038 0.0563,-0.077214 0.255422,-0.1705447 0.298714,-0.1400141 0.340461,-0.1841033 0.45558,-0.4811357 0.05808,-0.1498526 0.09225,-0.2029279 0.134572,-0.2090032 0.0765,-0.010992 0.103329,0.02899 0.172775,0.2574021 0.03254,0.1070581 0.08115,0.2212445 0.107997,0.2537423 0.02686,0.032503 0.167545,0.1059171 0.3126538,0.1631478 0.3248644,0.1281252 0.3369384,0.164986 0.0972,0.2968077 C 9.8109548,6.6825693 9.6599518,6.8391269 9.5445208,7.07564 c -0.09019,0.1847902 -0.132896,0.2448808 -0.174034,0.2448808 -0.0076,0 -0.02765,-0.00901 -0.04448,-0.020048 z"
       id="path836"
       sodipodi:nodetypes="cssssssscssssssssssscssssssscccccccsssssscsssssss" />
  </g>
</svg>
