<svg xmlns="http://www.w3.org/2000/svg" viewBox="0 0 32 32" style="enable-background:new 0 0 32 32" xml:space="preserve"><path d="M16 0C.449 0 0 5.387 0 6.001v6C0 13.103.897 14 2 14h6c1.103 0 2-.897 2-1.999V8h12v4.001c0 1.102.897 1.999 2 1.999h6c1.103 0 2-.897 2-1.999v-6C32 5.387 31.551 0 16 0zm14 12-6 .001V7a1 1 0 0 0-1-1H9a1 1 0 0 0-1 1v5l-6 .001-.001-5.957C2.002 6.004 2.536 2 16 2c13.458 0 13.997 4.001 14 4.001V12zM27 28c0 1.103-.897 2-2 2H7c-1.103 0-2-.897-2-2V16H3v12c0 2.206 1.794 4 4 4h18c2.206 0 4-1.794 4-4V16h-2v12z"/><path d="M23 21c0-3.86-3.14-7-7-7s-7 3.14-7 7 3.14 7 7 7 7-3.14 7-7zm-12 0c0-2.757 2.243-5 5-5s5 2.243 5 5-2.243 5-5 5-5-2.243-5-5z"/><circle cx="16" cy="21" r="2"/></svg>