<?xml version="1.0" encoding="UTF-8" standalone="no"?>
<!-- Created with Inkscape (http://www.inkscape.org/) -->

<svg
   viewBox="0 0 12.7 15.874996"
   version="1.1"
   id="svg5"
   inkscape:version="1.1.2 (0a00cf5339, 2022-02-04)"
   sodipodi:docname="giftedcenter.svg"
   xmlns:inkscape="http://www.inkscape.org/namespaces/inkscape"
   xmlns:sodipodi="http://sodipodi.sourceforge.net/DTD/sodipodi-0.dtd"
   xmlns="http://www.w3.org/2000/svg"
   xmlns:svg="http://www.w3.org/2000/svg">
  <sodipodi:namedview
     id="namedview7"
     pagecolor="#505050"
     bordercolor="#ffffff"
     borderopacity="1"
     inkscape:pageshadow="0"
     inkscape:pageopacity="0"
     inkscape:pagecheckerboard="1"
     inkscape:document-units="mm"
     showgrid="false"
     inkscape:zoom="8.7988368"
     inkscape:cx="37.107178"
     inkscape:cy="53.529803"
     inkscape:window-width="2560"
     inkscape:window-height="1412"
     inkscape:window-x="0"
     inkscape:window-y="0"
     inkscape:window-maximized="1"
     inkscape:current-layer="layer1"
     units="px"
     height="49px" />
  <defs
     id="defs2">
    <filter
       inkscape:collect="always"
       style="color-interpolation-filters:sRGB"
       id="filter2580"
       x="-0.00052287517"
       y="-0.00042185108"
       width="1.0010458"
       height="1.0008437">
      <feGaussianBlur
         inkscape:collect="always"
         stdDeviation="0.0021109417"
         id="feGaussianBlur2582" />
    </filter>
  </defs>
  <g
     inkscape:groupmode="layer"
     id="layer2"
     inkscape:label="Layer 2">
    <rect
       style="fill:#ffff00;stroke-width:0.0647759"
       id="rect2585"
       width="12.677642"
       height="15.854309"
       x="0.032675665"
       y="0.023753081" />
  </g>
  <g
     inkscape:label="Layer 1"
     inkscape:groupmode="layer"
     id="layer1"
     style="filter:url(#filter2580)">
    <path
       style="fill:#000000;stroke-width:0.0139261"
       d="M 2.4703571,13.324553 C 2.2364943,13.270688 2.0464418,13.095573 1.9853529,12.877672 1.9745745,12.83923 1.9656794,12.754149 1.9655916,12.688601 1.9653158,12.488779 2.0355841,12.337605 2.1918649,12.201862 2.3920411,12.02799 2.675773,11.975447 3.0175851,12.04895 l 0.1161749,0.02498 0.00886,0.08052 c 0.00488,0.04428 0.00886,0.125426 0.00886,0.180314 0,0.09499 -0.00161,0.0998 -0.032764,0.0998 -0.026448,0 -0.035912,-0.01111 -0.049117,-0.05768 -0.027936,-0.09851 -0.09638,-0.181124 -0.1836589,-0.22168 -0.070017,-0.03253 -0.089677,-0.03555 -0.195524,-0.03001 -0.142051,0.0074 -0.2382816,0.04846 -0.3160196,0.134713 -0.1000655,0.111029 -0.1537936,0.332508 -0.1243638,0.512657 0.051862,0.317451 0.2317219,0.480459 0.5069799,0.459474 0.1488502,-0.01133 0.270858,-0.09217 0.3408267,-0.22578 0.027,-0.05156 0.038861,-0.06194 0.066461,-0.0582 0.030704,0.0042 0.032895,0.0094 0.025441,0.06107 -0.00449,0.03108 -0.012637,0.09803 -0.018109,0.148781 -0.011759,0.109038 -0.02089,0.115977 -0.2089531,0.158797 -0.1369799,0.03118 -0.374548,0.03498 -0.4923232,0.0078 z m 3.6299052,0.0045 C 6.0429463,13.313283 5.974777,13.241203 5.4048728,12.593771 l -0.2242298,-0.254732 2.81e-5,0.390451 c 2.94e-5,0.460309 0.00246,0.470471 0.1203993,0.507628 0.05311,0.01673 0.070953,0.02923 0.072633,0.05089 0.00226,0.02822 -0.00211,0.02872 -0.2454573,0.02872 h -0.247691 v -0.03393 c 0,-0.02515 0.00757,-0.03393 0.029288,-0.03393 0.016107,0 0.047356,-0.0089 0.069437,-0.01971 0.075204,-0.03694 0.079898,-0.06886 0.079898,-0.543505 0,-0.411864 -0.00153,-0.436746 -0.029027,-0.481794 -0.0218,-0.03569 -0.045778,-0.05256 -0.096382,-0.06786 -0.053927,-0.0163 -0.067373,-0.02645 -0.067433,-0.05089 -5.41e-5,-0.03016 0.00231,-0.03054 0.1922203,-0.03054 h 0.1922954 l 0.3971629,0.446831 0.3971621,0.446833 0.00443,-0.307722 c 0.00612,-0.424779 -0.012273,-0.488128 -0.1487821,-0.512451 -0.039131,-0.007 -0.048565,-0.01495 -0.048565,-0.04107 v -0.03242 h 0.258212 0.2582114 l -0.00457,0.03003 c -0.00317,0.02094 -0.017542,0.03256 -0.047436,0.03836 -0.023581,0.0046 -0.057882,0.01597 -0.076232,0.02535 -0.070201,0.03581 -0.073812,0.06771 -0.073812,0.652265 0,0.298816 -0.00483,0.54275 -0.010716,0.542078 -0.0059,-7.52e-4 -0.030942,-0.0068 -0.055664,-0.01359 z m 4.3884887,-0.03088 c -0.08913,-0.03942 -0.115704,-0.0692 -0.264039,-0.295865 -0.06513,-0.09952 -0.128687,-0.191368 -0.141243,-0.204105 -0.01256,-0.01274 -0.05016,-0.02725 -0.083562,-0.03227 l -0.060732,-0.0091 2.164e-4,0.215488 c 1.081e-4,0.118517 0.00494,0.222209 0.010716,0.230419 0.016737,0.0238 0.069784,0.04614 0.109589,0.04614 0.02958,0 0.03666,0.0065 0.03666,0.03393 v 0.03393 H 9.817704 9.5390513 v -0.03393 c 0,-0.02731 0.0071,-0.03393 0.036375,-0.03393 0.020007,0 0.052159,-0.015 0.071449,-0.03331 l 0.035077,-0.03332 v -0.49687 c 0,-0.315431 -0.00539,-0.506425 -0.014743,-0.523032 -0.00904,-0.01602 -0.036712,-0.0295 -0.071449,-0.03477 -0.046425,-0.007 -0.056709,-0.01409 -0.056709,-0.03889 0,-0.03014 0.00125,-0.0303 0.3036595,-0.03724 0.3496992,-0.008 0.4677052,0.0023 0.5661822,0.04973 0.260586,0.125414 0.249553,0.457275 -0.01971,0.59275 -0.03545,0.01783 -0.06191,0.03854 -0.0588,0.046 0.0031,0.0074 0.06783,0.100196 0.143824,0.206069 0.153511,0.213873 0.221341,0.28069 0.307253,0.302661 0.04784,0.01224 0.05797,0.02066 0.05797,0.04823 0,0.03322 -7.77e-4,0.03341 -0.139326,0.03327 -0.116024,-1.02e-4 -0.151375,-0.0055 -0.21136,-0.03199 z m -0.28999,-0.647901 c 0.06853,-0.03282 0.109022,-0.08876 0.126078,-0.174173 0.02749,-0.137684 -0.01401,-0.249706 -0.112831,-0.304519 -0.05647,-0.03132 -0.159846,-0.04917 -0.2263921,-0.03908 l -0.046442,0.007 v 0.26866 c 0,0.244356 0.00228,0.269248 0.025008,0.275136 0.045154,0.01169 0.1811511,-0.0075 0.2345801,-0.03307 z m -6.6900344,0.632521 c 0,-0.02524 0.00756,-0.03393 0.02952,-0.03393 0.033621,0 0.086865,-0.02397 0.1024444,-0.04614 0.00577,-0.0082 0.010498,-0.2409 0.010498,-0.517081 0,-0.276184 -0.00473,-0.50887 -0.010498,-0.517083 -0.015576,-0.02214 -0.068824,-0.04614 -0.1024444,-0.04614 -0.021961,0 -0.02952,-0.0087 -0.02952,-0.03393 v -0.03393 l 0.482284,-2.8e-5 0.4822833,-2.7e-5 -0.00449,0.142532 c -0.00436,0.138436 -0.00544,0.142527 -0.037358,0.142527 -0.025614,0 -0.038098,-0.01302 -0.056599,-0.05903 -0.013055,-0.03246 -0.040146,-0.07369 -0.060208,-0.09161 -0.034142,-0.0305 -0.048732,-0.03286 -0.2282785,-0.03702 l -0.1918062,-0.0044 v 0.238554 0.238555 h 0.1371831 c 0.1369586,0 0.1372618,-1.03e-4 0.1857677,-0.04614 0.026723,-0.02538 0.048586,-0.05897 0.048586,-0.07465 0,-0.02134 0.00896,-0.0285 0.035722,-0.0285 H 4.337535 V 12.67211 12.8689 H 4.301813 c -0.021715,0 -0.035722,-0.0077 -0.035722,-0.01971 0,-0.03896 -0.034877,-0.09125 -0.073522,-0.110232 -0.025635,-0.01259 -0.08485,-0.01933 -0.1696586,-0.01933 H 3.8926269 l 0.00454,0.223593 c 0.00429,0.211696 0.00627,0.225233 0.037096,0.254467 0.029769,0.02824 0.045062,0.0308 0.1786236,0.02998 0.1617808,-10e-4 0.2161236,-0.01648 0.2982329,-0.08495 0.027533,-0.02297 0.061802,-0.06647 0.076152,-0.0967 0.019749,-0.04159 0.034256,-0.05495 0.059647,-0.05495 0.040294,0 0.040349,10e-4 0.010327,0.184081 l -0.023232,0.141639 H 4.0213668 3.5087233 Z m 3.4438623,0 c 0,-0.02732 0.00709,-0.03393 0.036434,-0.03393 0.053404,0 0.1158344,-0.03506 0.1258873,-0.07071 0.00482,-0.0171 0.00885,-0.256368 0.00896,-0.531721 l 2.161e-4,-0.50064 -0.1252904,0.0068 c -0.1885067,0.01021 -0.2829989,0.06785 -0.3112091,0.189831 -0.00718,0.03105 -0.016383,0.03787 -0.051087,0.03787 h -0.04233 l 0.00829,-0.105181 c 0.016732,-0.212163 0.022911,-0.24768 0.043096,-0.24768 0.010761,0 0.023538,0.0061 0.028396,0.01357 0.00564,0.0087 0.2094519,0.01357 0.5644506,0.01357 0.3549981,0 0.558808,-0.0049 0.5644503,-0.01357 0.00486,-0.0074 0.020386,-0.01357 0.034499,-0.01357 0.021266,0 0.027233,0.01572 0.034784,0.09161 0.00502,0.05039 0.00916,0.12978 0.00921,0.176432 1.076e-4,0.08063 -0.0016,0.08482 -0.03437,0.08482 -0.029191,0 -0.035979,-0.0085 -0.044321,-0.05538 -0.0218,-0.12257 -0.1204061,-0.175333 -0.3276554,-0.175333 H 7.36701 v 0.49448 c 0,0.294699 0.00574,0.508813 0.014199,0.529951 0.015247,0.03809 0.08878,0.07487 0.1496758,0.07487 0.029074,0 0.036182,0.0067 0.036182,0.03393 v 0.03393 H 7.2598342 6.9526017 Z m 1.2198242,0.0018 c -0.0016,-0.02722 0.00627,-0.03383 0.048214,-0.04029 0.027597,-0.0043 0.062239,-0.01811 0.076983,-0.03078 0.025307,-0.02174 0.026794,-0.05122 0.026591,-0.52648 -1.075e-4,-0.276891 -0.00494,-0.510159 -0.010716,-0.518372 -0.016469,-0.02342 -0.06955,-0.04614 -0.107802,-0.04614 -0.027679,0 -0.03488,-0.007 -0.03488,-0.03393 v -0.03393 H 8.654873 9.1389425 v 0.142501 0.142502 h -0.041082 c -0.034203,0 -0.042517,-0.0068 -0.049645,-0.04066 -0.00471,-0.02237 -0.01933,-0.05626 -0.032491,-0.07534 -0.04314,-0.06253 -0.093908,-0.07663 -0.2752695,-0.07644 l -0.1659641,1.53e-4 -0.00392,0.238635 -0.00392,0.238632 h 0.1225034 c 0.078077,0 0.1367833,-0.007 0.1618814,-0.01934 0.038646,-0.01898 0.073522,-0.07127 0.073522,-0.110229 0,-0.01246 0.014457,-0.01971 0.039295,-0.01971 h 0.039296 v 0.196788 0.196787 h -0.039296 c -0.032152,0 -0.039295,-0.006 -0.039295,-0.03317 0,-0.01823 -0.015508,-0.05031 -0.034467,-0.07125 -0.032869,-0.03631 -0.041149,-0.0383 -0.1786235,-0.04274 l -0.144158,-0.0047 v 0.210748 c 0,0.115912 0.00615,0.226107 0.013665,0.244877 0.018851,0.04709 0.1065947,0.06814 0.2400111,0.0576 0.1703617,-0.01347 0.2774999,-0.07084 0.332023,-0.177808 0.024355,-0.04778 0.039013,-0.06144 0.065937,-0.06144 0.031959,0 0.033978,0.0039 0.026281,0.0509 -0.00458,0.02799 -0.016188,0.09975 -0.025778,0.159467 l -0.017439,0.108571 -0.5138319,0.0036 -0.5138313,0.0036 z M 2.1254906,11.498767 C 1.7504205,11.402308 1.5236138,11.110573 1.5226812,10.72339 c -2.759e-4,-0.122592 0.040357,-0.284861 0.095896,-0.382789 0.055897,-0.09856 0.1989127,-0.238016 0.3059187,-0.298313 0.050016,-0.02818 0.142381,-0.067544 0.2052569,-0.087471 0.1061684,-0.033647 0.1316376,-0.036212 0.3572466,-0.035944 0.2050433,2.357e-4 0.2606758,0.00492 0.3567291,0.02998 0.062591,0.016326 0.1182511,0.034191 0.12369,0.039683 0.00544,0.00549 0.014485,0.1000756 0.020107,0.2101736 l 0.010222,0.200184 -0.033881,-2.36e-4 c -0.027392,-1.85e-4 -0.040501,-0.01474 -0.068463,-0.07607 -0.046239,-0.101404 -0.1538171,-0.211243 -0.242308,-0.247397 -0.093026,-0.03801 -0.2435161,-0.0505 -0.3519788,-0.02921 -0.2199364,0.04316 -0.3630073,0.181625 -0.4289495,0.415144 -0.030746,0.108883 -0.031172,0.363405 -8.025e-4,0.48603 0.047444,0.191614 0.1703402,0.34503 0.3369904,0.420672 0.085675,0.03889 0.1045298,0.04216 0.2429279,0.04216 0.2478528,0 0.2715076,-0.02606 0.2715076,-0.299097 0,-0.19284 -0.012321,-0.219453 -0.1071738,-0.231488 -0.1137587,-0.01442 -0.1214639,-0.0178 -0.1214639,-0.05325 l -1e-6,-0.03367 h 0.3358115 0.3358124 v 0.03274 c 0,0.02763 -0.00894,0.03417 -0.057239,0.04192 -0.094081,0.0151 -0.099951,0.03308 -0.099951,0.30619 v 0.239092 l -0.038823,0.0168 c -0.021354,0.0092 -0.096909,0.03214 -0.1679058,0.0509 -0.1839624,0.04859 -0.5235644,0.05796 -0.6763623,0.01866 z m 1.2832071,-0.02598 c 0,-0.03509 0.0058,-0.03986 0.058134,-0.04781 0.032826,-0.005 0.07326,-0.0232 0.092883,-0.04183 l 0.034749,-0.033 -4.263e-4,-0.621519 c -4.015e-4,-0.488406 -0.00443,-0.626497 -0.019029,-0.644741 -0.022071,-0.02759 -0.083023,-0.05143 -0.1314932,-0.05143 -0.029138,0 -0.034795,-0.0066 -0.034795,-0.040716 v -0.040714 l 0.1321816,-0.00298 c 0.0727,-0.0015 0.2254227,-0.00251 0.3393855,-0.00176 l 0.2072027,0.00125 0.00448,0.042444 c 0.00396,0.037732 4.012e-4,0.042444 -0.032612,0.042444 -0.020398,0 -0.05901,0.0087 -0.085803,0.01933 -0.078023,0.03096 -0.08093,0.05822 -0.076113,0.713798 l 0.00428,0.58273 0.037117,0.03523 c 0.023237,0.02207 0.059305,0.03807 0.096457,0.0428 0.053952,0.0069 0.05934,0.01108 0.05934,0.04649 v 0.03893 H 3.7516741 3.4087168 v -0.03898 z m 1.0288715,0 c 0,-0.03509 0.0058,-0.03986 0.058134,-0.04781 0.03283,-0.005 0.073261,-0.0232 0.092884,-0.04183 l 0.034749,-0.03301 V 10.732769 10.1154 l -0.032174,-0.03552 c -0.021775,-0.02405 -0.051793,-0.03802 -0.092884,-0.04326 -0.056707,-0.0072 -0.060709,-0.01053 -0.060688,-0.050055 l 2.86e-5,-0.042321 0.5930071,-0.00459 0.593002,-0.00459 v 0.1829769 c 0,0.19351 -0.00211,0.199451 -0.070792,0.199451 -0.018608,0 -0.027968,-0.01417 -0.034331,-0.05197 -0.010001,-0.05942 -0.056569,-0.13042 -0.1103277,-0.168223 -0.054654,-0.03843 -0.1300991,-0.05056 -0.3168444,-0.05092 l -0.1679063,-2.51e-4 v 0.305362 0.305361 h 0.1491131 c 0.2079517,0 0.2786554,-0.03164 0.3088749,-0.138226 0.012812,-0.04519 0.02006,-0.05178 0.056999,-0.05178 h 0.042319 v 0.24515 0.245151 l -0.045619,-0.0043 c -0.038773,-0.0035 -0.047534,-0.01132 -0.058377,-0.05171 C 5.3483084,10.795301 5.2814852,10.765428 5.073142,10.765428 H 4.9218517 l 0.00436,0.292991 0.00436,0.292991 0.039561,0.03229 c 0.024358,0.01989 0.066917,0.03574 0.1107461,0.04126 0.066665,0.0084 0.071184,0.01144 0.071184,0.04793 v 0.03897 H 4.7948078 4.4375609 Z m 1.9115895,-5.02e-4 c 0.0054,-0.0349 0.013269,-0.0404 0.069242,-0.04837 0.034738,-0.0049 0.08072,-0.02335 0.1021871,-0.04087 l 0.03903,-0.03187 0.00413,-0.647753 0.00409,-0.647754 -0.1612971,0.0075 c -0.2570414,0.01199 -0.3761249,0.0708 -0.4137317,0.204341 -0.016875,0.05994 -0.020546,0.0634 -0.067077,0.0634 H 5.87651 l 0.00932,-0.144613 c 0.00512,-0.07954 0.00932,-0.1742 0.00932,-0.2103595 0,-0.054266 0.0045,-0.065746 0.025724,-0.065746 0.014146,0 0.032491,0.00642 0.040766,0.014294 0.020792,0.019736 1.4754521,0.019586 1.4962435,-1.604e-4 0.00818,-0.00777 0.026445,-0.014119 0.040593,-0.014119 0.02184,0 0.025724,0.011987 0.025724,0.079346 0,0.043638 0.00417,0.1352469 0.00928,0.2035739 l 0.00928,0.12423 h -0.043313 c -0.039371,0 -0.044778,-0.0055 -0.059412,-0.06072 -0.038704,-0.145948 -0.1455348,-0.197136 -0.411445,-0.197136 H 6.86685 l 1.081e-4,0.60733 c 4.29e-5,0.380099 0.00566,0.626423 0.014994,0.658354 0.017507,0.05987 0.054832,0.08663 0.138538,0.09932 0.055103,0.0084 0.060731,0.01281 0.060731,0.04818 v 0.03898 H 6.7121602 6.3430982 l 0.00608,-0.03937 z m 1.5036924,2.01e-4 c 0,-0.03584 0.0053,-0.03993 0.062363,-0.04806 0.039721,-0.0057 0.074739,-0.02139 0.096457,-0.04334 l 0.034096,-0.03446 v -0.599445 c 0,-0.329702 -0.00505,-0.616657 -0.011225,-0.637674 -0.012145,-0.04135 -0.080081,-0.07714 -0.1464092,-0.07714 -0.033236,0 -0.036624,-0.0046 -0.032609,-0.044107 l 0.00448,-0.044109 0.5966027,-0.00454 0.5966025,-0.00454 v 0.1911502 0.19115 h -0.047315 c -0.044901,0 -0.048261,-0.0035 -0.065901,-0.06888 -0.023335,-0.08645 -0.1001138,-0.166512 -0.1797319,-0.187402 -0.031439,-0.0082 -0.1359327,-0.01502 -0.2322104,-0.01507 l -0.1750513,-7.7e-5 v 0.306828 0.306827 l 0.1633818,-0.0049 c 0.1940226,-0.0058 0.2310938,-0.02325 0.2653151,-0.124464 0.018648,-0.05515 0.026555,-0.06341 0.060732,-0.06347 l 0.039296,-7.2e-5 v 0.24429 0.24429 h -0.041048 c -0.036464,0 -0.042013,-0.0057 -0.049709,-0.05147 -0.00546,-0.03245 -0.024947,-0.0663 -0.052738,-0.09161 -0.043065,-0.03924 -0.047969,-0.04026 -0.214654,-0.04468 l -0.1705816,-0.0045 v 0.278597 c 0,0.274982 4.263e-4,0.279092 0.034506,0.316676 0.034484,0.03806 0.034609,0.03808 0.2179209,0.03797 0.1567646,-9.8e-5 0.1930145,-0.0043 0.2494705,-0.02901 0.091882,-0.0402 0.1723662,-0.113234 0.2109149,-0.191401 0.029837,-0.0605 0.036312,-0.06573 0.074763,-0.06037 0.030668,0.0043 0.040294,0.01189 0.035448,0.02802 -0.00367,0.01219 -0.018101,0.100018 -0.032095,0.195188 l -0.02545,0.173036 h -0.632813 -0.632812 z m 1.614757,0.0013 c 0,-0.03703 0.00502,-0.0411 0.060732,-0.04932 0.067925,-0.01001 0.098222,-0.02761 0.1227024,-0.07127 0.021918,-0.03908 0.023706,-1.214942 0.00188,-1.253627 -0.019596,-0.03479 -0.087888,-0.06711 -0.1417653,-0.06711 -0.038529,0 -0.043579,-0.0045 -0.043579,-0.039232 v -0.039217 l 0.2800014,-0.00998 c 0.4168484,-0.014846 0.7312194,-0.00261 0.8631894,0.033672 0.313496,0.086117 0.518738,0.2742001 0.585092,0.5361771 0.02373,0.09369 0.02059,0.323318 -0.0057,0.4178 -0.07511,0.269762 -0.283223,0.455132 -0.608367,0.541888 -0.09675,0.02582 -0.153989,0.02905 -0.6104778,0.03453 l -0.5037178,0.006 v -0.04036 z m 0.9307149,-0.09014 c 0.190179,-0.03828 0.350691,-0.152455 0.421841,-0.300058 0.09863,-0.204617 0.09824,-0.494039 -9.27e-4,-0.691481 -0.08845,-0.176113 -0.209007,-0.268782 -0.41461,-0.318722 -0.111595,-0.02711 -0.288237,-0.03594 -0.377921,-0.01891 l -0.044655,0.0085 v 0.649742 c 0,0.357359 0.0016,0.649833 0.00353,0.649946 0.00201,1.08e-4 0.029291,0.009 0.060731,0.01976 0.07321,0.02505 0.230833,0.02559 0.351975,0.0013 z M 6.2680041,9.3656355 C 6.1481726,9.3467519 6.0324036,9.290806 5.9590936,9.2163702 l -0.065102,-0.06612 H 4.0440248 2.194057 V 7.5352254 5.9202006 h 0.2000583 0.200059 V 5.7301965 c 0,-0.1879879 3.009e-4,-0.1900016 0.032154,-0.1900141 0.1028644,-4.27e-5 0.3744161,-0.033303 0.5537326,-0.067845 0.1139621,-0.021943 0.2682926,-0.049762 0.3429573,-0.061809 0.1833251,-0.029562 0.6799755,-0.041326 0.8723472,-0.020639 0.1368575,0.014696 0.3411815,0.053365 0.4035158,0.076319 0.0186,0.00685 0.00443,-0.028664 -0.052381,-0.1313547 C 4.5862499,5.0452529 4.5297608,4.8012814 4.542653,4.4544611 4.5601773,3.9830696 4.7299203,3.5986553 5.0664156,3.2683061 5.3380333,3.0016519 5.6868636,2.8224387 6.0774626,2.7488832 c 0.155878,-0.029343 0.533968,-0.032762 0.6893593,-0.00622 0.2533483,0.043274 0.5135538,0.1432466 0.7314839,0.2810363 0.4321712,0.2732497 0.722458,0.6867893 0.8207555,1.1692401 0.030008,0.1472817 0.033614,0.4713113 0.00684,0.6143874 -0.036211,0.19352 -0.1230648,0.4198392 -0.2236963,0.5829098 -0.027116,0.043936 -0.049295,0.083125 -0.049295,0.087085 0,0.00396 0.021484,-0.0015 0.047742,-0.011761 0.1263472,-0.050138 0.328513,-0.076798 0.6381726,-0.084148 0.3525473,-0.00838 0.525972,0.00712 0.9295019,0.082972 0.2113139,0.039728 0.4909645,0.075793 0.5877075,0.075793 0.02403,0 0.0261,0.015072 0.0261,0.1900015 v 0.1900041 h 0.199943 0.199943 l 0.0037,1.6150248 0.0037,1.6150274 -1.8558837,-2.6e-6 H 6.9775859 l -0.057198,0.061714 C 6.7934174,9.3489437 6.5403638,9.4085385 6.2679632,9.3655979 Z M 7.0638248,8.865219 C 7.4083532,8.7603538 7.8384056,8.6948884 8.2796371,8.6801427 c 0.5203678,-0.017379 1.0948081,0.050629 1.8581379,0.2200322 0.185498,0.041165 0.353346,0.078092 0.372995,0.082059 l 0.03572,0.00722 V 7.5226815 6.0559289 h -0.132179 -0.132182 v 1.3696315 1.3696365 l -0.23221,-0.074481 C 9.3506301,8.4964256 8.8636455,8.4038184 8.383461,8.4038184 c -0.3562393,0 -0.5697856,0.030184 -0.8592794,0.1214416 -0.1854959,0.058474 -0.3157244,0.114016 -0.470567,0.2006947 -0.1152085,0.06449 -0.3121857,0.2066081 -0.3778054,0.2725801 -0.040298,0.040518 -0.038849,0.04019 0.085739,-0.019335 0.069703,-0.033308 0.2057269,-0.0846 0.3022739,-0.1139859 z M 6.1804276,8.9665632 C 6.0238822,8.8150735 5.6582062,8.6168615 5.3687317,8.5265916 5.0997091,8.442699 4.9189376,8.4157554 4.5733231,8.4080365 4.3297878,8.4025946 4.2186948,8.4060303 4.0803221,8.4232336 3.7088596,8.4694645 3.300574,8.5648402 2.8406743,8.712814 l -0.2465,0.079313 V 7.4240081 6.0559089 H 2.465565 2.3369563 v 1.4666497 c 0,1.3905288 0.00125,1.4662761 0.025008,1.4593898 0.047476,-0.013793 0.5113242,-0.1184824 0.6684265,-0.1508703 0.7668751,-0.1581077 1.48785,-0.194498 2.1202851,-0.1070168 0.3719429,0.05145 0.7860177,0.1592111 0.9854598,0.2564652 0.052148,0.025434 0.09776,0.046534 0.1013623,0.046903 0.00358,5.016e-4 -0.022083,-0.027041 -0.05707,-0.060896 z M 6.6088614,8.8787409 C 6.7557538,8.7476369 6.9241183,8.636881 7.1213183,8.5416307 7.7881763,8.2195245 8.5398722,8.1824997 9.5033326,8.4243044 c 0.1619747,0.040654 0.5387074,0.1495813 0.6108924,0.1766327 0.02372,0.0089 0.02501,-0.066183 0.02501,-1.4622612 V 5.6670231 L 9.9784705,5.6497195 C 9.8900518,5.6401899 9.7131942,5.6120025 9.5854534,5.5870753 9.2416746,5.5199747 9.1089952,5.5088678 8.7480697,5.516993 8.40491,5.5247169 8.3100559,5.5384344 8.0999515,5.6106233 7.9464927,5.6633593 7.8638926,5.7165492 7.7772532,5.8184225 7.5824525,6.0474727 7.4878093,6.2995518 7.46876,6.6400851 7.458581,6.8220367 7.454461,6.8431973 7.415929,6.9110351 7.392945,6.9515061 7.347715,7.0036651 7.3154194,7.026947 l -0.058719,0.042326 0.03014,0.039297 c 0.042813,0.055821 0.042146,0.1782501 -0.00125,0.2340306 l -0.031417,0.040355 0.027843,0.051866 c 0.048836,0.090975 0.025813,0.1930686 -0.056583,0.2509255 -0.031371,0.022018 -0.044184,0.042218 -0.044184,0.069623 0,0.1282427 -0.1726521,0.2729538 -0.3475062,0.2912706 -0.053653,0.00562 -0.085851,0.018081 -0.1169148,0.045288 -0.047445,0.041539 -0.151212,0.094746 -0.1847768,0.094746 -0.018663,0 -0.022126,0.05326 -0.025575,0.3935853 -0.00226,0.2164711 -0.004,0.3935527 -0.004,0.39351 0,-4.01e-5 0.047883,-0.042808 0.1064047,-0.09504 z M 6.373848,8.5728826 V 8.1990711 l -0.035722,-0.00813 C 6.2779271,8.1772535 6.1756683,8.1234316 6.1391481,8.0862488 6.1187273,8.0654594 6.0889946,8.050977 6.0667198,8.050977 5.9002175,8.050977 5.69508,7.8904267 5.69508,7.7601126 5.69508,7.7378686 5.674694,7.7081796 5.635715,7.6736476 5.582824,7.6267896 5.575639,7.6129166 5.569834,7.5464457 5.565244,7.4938477 5.5702352,7.4591577 5.586724,7.4288561 5.609156,7.3876481 5.608785,7.3841501 5.577584,7.3440711 5.531563,7.2849531 5.531581,7.1612418 5.5776266,7.1021009 c 0.017913,-0.023021 0.026445,-0.041852 0.018951,-0.041852 -0.030094,0 -0.1050821,-0.075374 -0.139887,-0.140606 C 5.4239665,6.8583066 5.4184042,6.8264629 5.4078176,6.6397992 5.3900676,6.326889 5.3240078,6.1271397 5.1644749,5.9040229 5.0567905,5.7534235 4.9987621,5.7035263 4.8591262,5.6414689 4.6170153,5.5338678 4.4207189,5.5067638 3.9594162,5.5172538 c -0.3336317,0.00757 -0.4053034,0.016 -0.7650613,0.089896 -0.074665,0.015322 -0.2080967,0.035171 -0.2965156,0.044052 l -0.1607609,0.016175 v 1.4700177 c 0,0.8085118 0.00243,1.4700228 0.00544,1.4700228 0.00299,0 0.048461,-0.015373 0.1010375,-0.034171 C 2.9805934,8.5242593 3.3572655,8.4219647 3.5658921,8.3770755 3.9709168,8.2899328 4.2458906,8.2619461 4.59975,8.2718417 c 0.5186383,0.01452 0.93076,0.1258402 1.3454084,0.3634519 0.1160914,0.066524 0.3145575,0.2115986 0.3776002,0.2760183 0.019054,0.01946 0.038343,0.035397 0.04287,0.035397 0.00453,0 0.00823,-0.1682165 0.00823,-0.373814 z M 6.871433,7.900701 c 0.050784,-0.013392 0.1668947,-0.09768 0.1668947,-0.1211531 0,-0.00572 -0.2700791,-0.010282 -0.6001751,-0.010106 -0.3300964,1.605e-4 -0.600175,0.00502 -0.600175,0.010834 0,0.018883 0.1298473,0.1196309 0.1617984,0.1255392 0.070353,0.013015 0.8196224,0.00863 0.871657,-0.00509 z M 7.1351775,7.5819779 c 0.03761,-0.025003 0.04104,-0.068781 0.00811,-0.103343 -0.022289,-0.023397 -0.063309,-0.024827 -0.7127443,-0.024827 -0.5343786,0 -0.6921981,0.00381 -0.7029164,0.016978 -0.029477,0.036185 -0.030079,0.06378 -0.00211,0.09753 l 0.028817,0.034793 h 0.6745494 c 0.5873949,0 0.6786561,-0.00276 0.7063121,-0.021141 z m 0.028902,-0.3073053 c 0.024198,-0.022971 0.021284,-0.065455 -0.0065,-0.094613 -0.022304,-0.023397 -0.063777,-0.024827 -0.7277634,-0.024827 -0.6210503,0 -0.7067625,0.00253 -0.7265687,0.021316 -0.028917,0.027465 -0.028507,0.058401 0.0012,0.08957 0.022307,0.023398 0.063943,0.024827 0.7330706,0.024827 0.5327187,0 0.7136928,-0.00406 0.726569,-0.016275 z M 6.0054415,6.6904111 C 5.9934168,6.2827572 5.9582352,6.1239448 5.7898406,5.7171335 5.6917314,5.4801212 5.6878491,5.4452154 5.7595968,5.4452154 c 0.043024,0 0.060387,0.030786 0.1684214,0.2985732 0.143027,0.3545343 0.180525,0.5383517 0.191725,0.9398365 l 0.00785,0.2816131 H 6.43796 6.7483265 l 0.00827,-0.2883967 c 0.01224,-0.4266051 0.055696,-0.615092 0.2417161,-1.0484105 0.068635,-0.1598807 0.079337,-0.1768258 0.1140767,-0.1806376 0.026787,-0.00288 0.042984,0.00404 0.053762,0.023172 0.012644,0.022445 -0.00264,0.07017 -0.084881,0.2649188 -0.1662996,0.3938261 -0.214421,0.6260912 -0.214421,1.0349213 v 0.1944328 l 0.1321813,-7.524e-4 c 0.1615178,-10e-4 0.2166219,-0.017981 0.2729525,-0.084412 0.042165,-0.049727 0.043788,-0.056906 0.054655,-0.2418824 C 7.3499459,6.2415319 7.4548107,5.9894704 7.7387814,5.6475728 7.9580224,5.3836044 8.0543955,5.227844 8.1244522,5.0242377 8.2882302,4.5482519 8.2085394,4.0160118 7.9099368,3.5915382 7.8163687,3.4585159 7.5802168,3.2343759 7.4416896,3.1471003 7.1489697,2.962676 6.8594566,2.8718921 6.5167478,2.8570661 6.0144429,2.8353488 5.5188574,3.0182559 5.1796557,3.3505812 4.91638,3.6085259 4.7722213,3.8738485 4.7012695,4.231056 c -0.034007,0.1712133 -0.022485,0.5360796 0.02184,0.6916619 0.073681,0.2586144 0.1447804,0.3822101 0.4200436,0.7301664 0.1855202,0.2345146 0.2701366,0.3736811 0.3297504,0.5423415 0.046024,0.1302137 0.079084,0.3328996 0.079194,0.4855354 5.41e-5,0.093068 0.00642,0.1277937 0.032237,0.176432 0.047004,0.088527 0.097621,0.1080074 0.2806988,0.1080324 l 0.148518,2.76e-5 -0.00811,-0.2748246 z M 6.2630793,6.0276964 C 6.2301497,6.0094649 6.1380662,5.8721391 6.1380662,5.8412433 c 0,-0.013316 0.00772,-0.031508 0.017146,-0.04045 0.03166,-0.030066 0.06783,-0.016902 0.1043167,0.037995 0.019846,0.029847 0.038608,0.054286 0.041688,0.054286 0.00307,0 0.022527,-0.027438 0.04321,-0.060936 0.037433,-0.060666 0.084726,-0.08617 0.1295204,-0.069844 0.011867,0.00431 0.039161,0.035535 0.060661,0.069325 0.021497,0.033805 0.043322,0.061456 0.048498,0.061456 0.00518,0 0.022688,-0.021366 0.038921,-0.0475 0.030229,-0.048658 0.068125,-0.060598 0.099065,-0.031217 0.00943,0.00895 0.017146,0.027152 0.017146,0.04045 0,0.03546 -0.095101,0.1706692 -0.1267447,0.1802063 -0.043284,0.013065 -0.095635,-0.018131 -0.1310907,-0.078027 l -0.032801,-0.055434 -0.022442,0.033088 c -0.034634,0.051061 -0.097041,0.1077716 -0.1180886,0.1073152 -0.01043,-2.357e-4 -0.030229,-0.00665 -0.043992,-0.014244 z M 5.6879349,5.0776784 C 5.5209589,5.0569391 5.3971849,4.9984177 5.2899,4.8894874 4.9564615,4.5509302 5.1646482,3.9521964 5.6490736,3.8565147 c 0.055498,-0.010959 0.1367706,-0.012915 0.2532096,-0.00607 0.094313,0.00554 0.2013766,0.010834 0.2379189,0.011787 l 0.06644,0.00176 0.00941,0.1289975 c 0.00518,0.070945 0.012968,0.1488414 0.017316,0.1731017 0.00683,0.038098 0.00383,0.044109 -0.021968,0.044109 -0.020842,0 -0.039106,-0.017429 -0.060382,-0.057681 -0.08102,-0.153205 -0.166096,-0.2054395 -0.3344713,-0.2053668 -0.07379,2.76e-5 -0.1151901,0.00755 -0.1578303,0.028626 -0.073224,0.036187 -0.1727504,0.1381408 -0.2066502,0.2116863 -0.067072,0.1455112 -0.072549,0.36688 -0.012827,0.5184775 0.044519,0.1130029 0.1643445,0.2270866 0.2691563,0.2562495 0.1437735,0.040009 0.2729638,0.017153 0.3011567,-0.053273 0.00781,-0.019485 0.014199,-0.091732 0.014199,-0.1604977 0,-0.1446083 -0.015929,-0.1775329 -0.092534,-0.1911827 -0.039553,-0.00705 -0.050359,-0.015398 -0.05034,-0.038891 2.83e-5,-0.029669 0.00203,-0.029923 0.2429394,-0.029923 0.2381549,0 0.2429142,7.524e-4 0.2429039,0.028845 -8.5e-6,0.021216 -0.011403,0.030999 -0.043116,0.037027 -0.06121,0.011611 -0.072967,0.053626 -0.070286,0.2510859 0.00271,0.1973971 0.014951,0.1819542 -0.1885877,0.2372105 -0.1423551,0.038645 -0.2600069,0.049609 -0.376791,0.035099 z M 7.044881,5.0607509 C 6.8580633,5.0153125 6.7119483,4.9043786 6.6290239,4.7450295 6.5823091,4.6552587 6.5759847,4.6303063 6.5699942,4.5121575 6.5536234,4.1892012 6.7112895,3.9602815 7.0138333,3.867742 7.1252931,3.833649 7.3571178,3.831098 7.5027501,3.862352 c 0.055016,0.011787 0.1128903,0.020087 0.1286093,0.018407 0.026206,-0.00288 0.029405,0.00765 0.038516,0.1258602 0.00546,0.070907 0.013101,0.1487763 0.016965,0.1730365 0.00632,0.039625 0.00346,0.044107 -0.02815,0.044107 -0.025253,0 -0.039371,-0.010533 -0.050031,-0.037321 C 7.5791691,4.1123279 7.5077481,4.0224392 7.4490163,3.9855272 7.3694774,3.9355372 7.2140239,3.9231739 7.1152856,3.9589824 6.9259468,4.0276579 6.8257973,4.2307726 6.8414184,4.514412 c 0.00572,0.1038319 0.014803,0.1429457 0.049566,0.213507 0.07287,0.147891 0.1820311,0.2256521 0.3353111,0.238853 0.1644529,0.014169 0.2961292,-0.057666 0.3779905,-0.2061918 0.034067,-0.061809 0.046411,-0.073591 0.069947,-0.066752 0.015716,0.00456 0.030896,0.010257 0.033736,0.012664 0.00282,0.00253 -0.00839,0.064232 -0.02495,0.1374235 C 7.663752,4.9290947 7.643968,4.9832628 7.628051,4.9944048 7.536019,5.0588318 7.1960187,5.0975145 7.0448801,5.0607528 Z M 3.9043299,4.2717095 C 3.6755049,4.2389128 3.6361206,4.222354 3.6650232,4.171065 3.6845642,4.1364 3.6874902,4.136435 3.9573365,4.173945 4.1833487,4.20538 4.2208146,4.221871 4.1859636,4.2746723 c -0.021211,0.032152 -0.037989,0.031972 -0.2816337,-0.00288 z m 4.7941267,0.016877 c -0.021953,-0.020865 -0.021426,-0.057877 0.00108,-0.075391 0.00982,-0.00765 0.1228971,-0.027044 0.2512736,-0.043091 0.2375789,-0.029705 0.2738797,-0.027081 0.2738797,0.019736 0,0.034632 -0.042969,0.047811 -0.2441864,0.074829 -0.1132697,0.015222 -0.2192874,0.030392 -0.2355952,0.033772 -0.016311,0.00324 -0.03721,-0.001 -0.046442,-0.00986 z M 3.844537,3.5236202 C 3.5773165,3.4075529 3.347751,3.3004959 3.3343916,3.2857176 c -0.029987,-0.033158 -0.014457,-0.084718 0.027326,-0.090691 0.015681,-0.00226 0.1403717,0.044335 0.2770984,0.1035059 0.6119857,0.2648512 0.7355583,0.3193425 0.7523102,0.3317435 0.040774,0.030209 0.00528,0.1058758 -0.049075,0.1046394 -0.00641,-1.429e-4 -0.2302917,-0.09523 -0.497513,-0.211295 z m 4.6477855,0.1969029 c -0.028938,-0.016 -0.033283,-0.070895 -0.00714,-0.09024 0.032765,-0.024225 1.0035016,-0.438349 1.0271223,-0.4381609 0.033065,2.508e-4 0.058329,0.034061 0.052861,0.070699 -0.004,0.026901 -0.075584,0.061992 -0.5119606,0.2509656 -0.27901,0.1208296 -0.513721,0.2198867 -0.5215806,0.2201274 -0.00786,2.358e-4 -0.025539,-0.00579 -0.039295,-0.013392 z M 4.4634243,3.0259146 C 4.3558242,2.9420195 4.2643918,2.8657505 4.2602414,2.8564166 c -0.010668,-0.023999 0.004,-0.054103 0.031182,-0.064008 0.027008,-0.00986 0.052204,0.0069 0.2705503,0.1797498 0.1640253,0.1298451 0.1883111,0.164806 0.1337534,0.192537 -0.015202,0.00772 -0.029673,0.013993 -0.032152,0.013893 -0.00246,-8.28e-5 -0.092548,-0.068788 -0.200149,-0.1526784 z M 8.1775754,3.1633457 C 8.1257259,3.1358003 8.1524111,3.0992996 8.3279887,2.9576931 8.5289874,2.795578 8.5509691,2.7821714 8.5855751,2.8005609 8.6377012,2.8282543 8.6105375,2.8642032 8.4280176,3.0089871 8.2161808,3.1770256 8.2102216,3.180697 8.1775754,3.1633457 Z M 5.1403662,2.7749891 C 5.1133328,2.7529709 4.6686093,2.1239682 4.5463226,1.9348042 4.5001567,1.8633928 4.4946963,1.8469944 4.5087672,1.822027 c 0.011661,-0.020689 0.027351,-0.027979 0.053777,-0.025003 0.031542,0.00361 0.087753,0.075419 0.3634308,0.4646406 0.1793646,0.2532401 0.3261171,0.4675722 0.3261171,0.4762992 0,0.019134 -0.046215,0.060783 -0.067419,0.060783 -0.00834,0 -0.028271,-0.010683 -0.044305,-0.023724 z m 2.5205907,0.00253 c -0.012348,-0.011734 -0.022126,-0.031575 -0.021712,-0.044106 9.278e-4,-0.02909 0.6267462,-0.9116239 0.660166,-0.931009 0.032605,-0.018909 0.073308,0.00429 0.079727,0.045428 0.00328,0.02104 -0.090988,0.1668573 -0.312192,0.482857 -0.1742939,0.2489794 -0.3264448,0.4561718 -0.3381138,0.4604275 -0.03238,0.011787 -0.043472,0.00955 -0.067873,-0.013592 z M 5.7612301,2.4827806 c -0.013068,-0.00913 -0.052958,-0.1083183 -0.08972,-0.2231092 -0.054468,-0.1700848 -0.062991,-0.2103321 -0.04814,-0.2273273 0.020112,-0.023021 0.041086,-0.02579 0.06887,-0.00903 0.01711,0.010332 0.1457353,0.3908944 0.1457353,0.4312069 0,0.02895 -0.049618,0.047209 -0.076746,0.028268 z M 6.3889466,2.4701164 C 6.369742,2.4440807 6.3667026,2.3680349 6.3667026,1.9136812 c 0,-0.5081781 0.001,-0.5272096 0.028582,-0.5534199 0.015716,-0.014921 0.035009,-0.027149 0.042869,-0.027149 0.00786,0 0.027151,0.012238 0.04287,0.027149 0.027597,0.02622 0.028582,0.045242 0.028582,0.5534199 0,0.4543537 -0.00303,0.5303944 -0.022244,0.5564352 -0.012235,0.016576 -0.034374,0.030174 -0.049204,0.030174 -0.014829,0 -0.03697,-0.013592 -0.049204,-0.030174 z m 0.671835,0.00885 c -0.012348,-0.011736 -0.022455,-0.024426 -0.022455,-0.028228 0,-0.01605 0.1193554,-0.393658 0.1315153,-0.4160976 0.00788,-0.014545 0.025453,-0.022846 0.043044,-0.020363 0.061662,0.00873 0.060782,0.037326 -0.00785,0.2551185 -0.072523,0.230136 -0.092317,0.2588927 -0.1442553,0.2095647 z"
       id="path112814"
       inkscape:export-filename="/home/conquestace/Documents/Obsidian/GiftedCenter/Media/mainlogo_black.png"
       inkscape:export-xdpi="231"
       inkscape:export-ydpi="231" />
  </g>
</svg>
