<?xml version="1.0" encoding="UTF-8" standalone="no"?>
<!-- Created with Inkscape (http://www.inkscape.org/) -->

<svg
   viewBox="0 0 12.7 15.874996"
   version="1.1"
   id="svg5"
   inkscape:version="1.1.2 (0a00cf5339, 2022-02-04)"
   sodipodi:docname="mathcodes.svg.svg"
   xmlns:inkscape="http://www.inkscape.org/namespaces/inkscape"
   xmlns:sodipodi="http://sodipodi.sourceforge.net/DTD/sodipodi-0.dtd"
   xmlns="http://www.w3.org/2000/svg"
   xmlns:svg="http://www.w3.org/2000/svg">
  <sodipodi:namedview
     id="namedview7"
     pagecolor="#505050"
     bordercolor="#ffffff"
     borderopacity="1"
     inkscape:pageshadow="0"
     inkscape:pageopacity="0"
     inkscape:pagecheckerboard="1"
     inkscape:document-units="mm"
     showgrid="false"
     inkscape:zoom="8.7988368"
     inkscape:cx="-18.922956"
     inkscape:cy="32.845251"
     inkscape:window-width="2560"
     inkscape:window-height="1412"
     inkscape:window-x="0"
     inkscape:window-y="0"
     inkscape:window-maximized="1"
     inkscape:current-layer="layer1"
     units="px" />
  <defs
     id="defs2">
    <filter
       inkscape:collect="always"
       style="color-interpolation-filters:sRGB"
       id="filter2580"
       x="-0.0010711268"
       y="-0.00053516023"
       width="1.0021423"
       height="1.0010703">
      <feGaussianBlur
         inkscape:collect="always"
         stdDeviation="0.0021109417"
         id="feGaussianBlur2582" />
    </filter>
  </defs>
  <g
     inkscape:groupmode="layer"
     id="layer2"
     inkscape:label="Layer 2">
    <rect
       style="fill:#1b91d6;stroke-width:0.0650002"
       id="rect2585"
       width="12.73008"
       height="15.898533"
       x="-0.0056859744"
       y="-0.0077587189" />
  </g>
  <g
     inkscape:label="Layer 1"
     inkscape:groupmode="layer"
     id="layer1"
     style="filter:url(#filter2580)">
    <path
       style="fill:#000000;stroke-width:0.0147895"
       d="M 5.2138377,7.9635079 C 5.3757037,7.94511 5.5343054,7.8454648 5.6308196,7.701516 5.7284729,7.5558694 5.7823308,7.3763245 5.8265993,7.04885 c 0.021244,-0.1571898 0.042869,-0.3792376 0.048045,-0.4934408 0.013424,-0.2961166 0.047195,-1.3376518 0.052514,-1.6194251 0.0025,-0.1309782 0.00559,-0.2393013 0.00697,-0.2407203 0.00493,-0.00517 0.9834469,-0.00841 0.9873523,-0.00333 0.00582,0.00759 -0.017447,1.0128098 -0.035696,1.5437857 -0.024364,0.7087415 -0.013584,0.8804643 0.071451,1.1387844 0.1113496,0.338237 0.3584153,0.5452616 0.7063598,0.5918709 0.1592335,0.021345 0.2722618,0.0096 0.4360401,-0.045246 C 8.2532311,7.8696929 8.386828,7.7809503 8.4890499,7.6624614 8.6431723,7.4838133 8.7094339,7.3233473 8.7480208,7.0353006 8.7703348,6.8687483 8.7699485,6.8579913 8.7403431,6.8192243 8.670245,6.7274398 8.5831027,6.7660213 8.531692,6.9116025 8.512373,6.966309 8.4793506,7.0371516 8.4583042,7.0690318 8.4059212,7.1483841 8.2748159,7.2347509 8.1792045,7.2528927 8.0196329,7.2831696 7.8317086,7.2047468 7.742405,7.0706024 7.5746684,6.8186467 7.5376266,6.1850496 7.6230408,5.0288436 c 0.013804,-0.1869082 0.026581,-0.3411357 0.028387,-0.3427283 0.00184,-0.00166 0.2074573,-0.00597 0.4570057,-0.00971 0.2495483,-0.00374 0.4633165,-0.012818 0.475041,-0.020187 0.011724,-0.00734 0.026842,-0.025059 0.033593,-0.039393 0.01595,-0.03383 -0.024649,-0.6266165 -0.046114,-0.673382 -0.012865,-0.028025 -0.030039,-0.037598 -0.079279,-0.044194 -0.048835,-0.00655 -2.7934175,0.011362 -3.2881068,0.021452 -0.2768654,0.00565 -0.4785971,0.069721 -0.6648069,0.2111612 -0.1067769,0.081102 -0.1423,0.1195282 -0.2212018,0.2392603 -0.1100319,0.1669729 -0.1669741,0.3068594 -0.2398654,0.5892573 -0.050973,0.1974834 -0.05214,0.2066592 -0.030301,0.2384182 0.028084,0.040843 0.10099,0.052359 0.147571,0.023324 0.018719,-0.011665 0.069404,-0.074438 0.1126348,-0.1394771 0.088308,-0.1328595 0.2208887,-0.253991 0.3373077,-0.3081775 0.1069218,-0.049768 0.2887022,-0.08125 0.480403,-0.083203 0.140028,-0.00137 0.1663799,0.00166 0.1807643,0.021369 0.03055,0.041782 -0.00607,0.7277248 -0.071103,1.3319335 C 5.167607,6.6704259 5.1054273,6.8314415 4.7890099,7.1994187 4.6531399,7.357431 4.6109391,7.4421191 4.609131,7.5604041 4.6051199,7.822916 4.8739612,8.0021287 5.2138377,7.9635068 Z"
       id="path1270"
       sodipodi:nodetypes="csssscssssssssssscssscsssssssscssssssscc" />
    <g
       id="g2149"
       transform="matrix(0.17602403,0.01830251,-0.01830251,0.17602403,6.3660555,-21.027946)">
      <path
         d="m 9.9150053,188.10072 c -1.0838389,-0.17874 -2.0661975,-1.0973 -2.8211206,-2.63792 -0.7182632,-1.46581 -1.0712453,-2.87538 -1.1363473,-4.53781 -0.082428,-2.10483 0.3118084,-3.48347 1.2805494,-4.47804 0.6791615,-0.69727 1.1800413,-0.888 2.9359272,-1.11798 2.86994,-0.37588 7.554754,-1.02842 7.662315,-1.06726 0.07102,-0.0256 0.09075,-0.17817 0.05711,-0.44153 -0.02826,-0.22131 -0.05855,-0.4118 -0.0673,-0.42334 -0.0127,-0.0167 -5.430517,0.73714 -5.998305,0.83466 -0.122952,0.0211 -0.18628,-0.20408 -0.359937,-1.27998 -0.367755,-2.27841 -0.270103,-3.01429 0.48837,-3.68024 1.076705,-0.94536 4.105239,-1.82273 6.657498,-1.92869 2.024797,-0.084 3.199527,0.26519 4.177627,1.24203 0.695633,0.69473 0.894749,1.20104 1.222273,3.10794 0.781289,4.5488 0.742749,5.8185 -0.208577,6.8715 -0.702987,0.77813 -1.466913,0.99224 -5.251346,1.47189 -3.665521,0.46457 -4.227596,0.62987 -5.184056,1.52452 -0.849388,0.79451 -1.170498,1.82452 -1.009005,3.23655 0.0901,0.78779 0.351074,2.46999 0.435178,2.80509 0.04664,0.18585 -0.0089,0.20925 -0.819621,0.34586 -1.260051,0.21229 -1.563759,0.23479 -2.0612351,0.15275 z m 4.6982367,-15.96861 c 1.138862,-0.76637 0.08854,-2.51444 -1.13166,-1.88346 -0.510416,0.26395 -0.704019,0.98136 -0.41543,1.53943 0.286181,0.55341 1.000048,0.71217 1.54709,0.34403 z"
         style="fill:#000000;stroke-width:0.0246742"
         id="path1795" />
      <path
         d="m 20.548782,193.24888 c 1.777467,-0.19862 3.778842,-0.69724 4.756106,-1.18495 0.734275,-0.36646 1.056355,-0.65262 1.320747,-1.17351 0.361328,-0.71186 0.380563,-1.40996 0.08514,-3.0897 -0.134799,-0.76646 -0.254476,-1.4026 -0.265946,-1.41367 -0.01147,-0.0111 -1.342774,0.16356 -2.95845,0.38809 -1.615676,0.22454 -3.031217,0.40956 -3.145645,0.41116 -0.214392,0.003 -0.275568,-0.1267 -0.326607,-0.69261 l -0.02489,-0.27589 3.963418,-0.5315 c 4.61852,-0.61935 5.356772,-0.75155 6.025266,-1.07888 1.058147,-0.51812 1.840091,-1.65055 2.000911,-2.89776 0.128613,-0.99744 0.100203,-2.61774 -0.06266,-3.57323 -0.194039,-1.1384 -0.709611,-2.84567 -1.115031,-3.69231 -0.632913,-1.32173 -1.671106,-2.15616 -2.794857,-2.24637 -0.477924,-0.0383 -2.722443,0.20629 -2.829122,0.30838 -0.01895,0.0181 0.08383,0.63297 0.228398,1.36628 0.196048,0.99442 0.264064,1.61775 0.267601,2.45238 0.0043,1.03335 -0.01462,1.15847 -0.24801,1.63318 -0.531871,1.08179 -1.451366,1.70543 -3.015914,2.04553 -0.459051,0.0998 -1.883779,0.31058 -3.166062,0.46844 -3.660875,0.45066 -4.243219,0.59886 -4.984591,1.26866 -0.846747,0.76498 -1.106256,1.71194 -0.892545,3.25699 0.327405,2.36703 0.968278,5.62648 1.203975,6.1234 0.260494,0.54919 0.759038,1.1079 1.285259,1.4404 0.996221,0.62947 2.820862,0.89673 4.693501,0.68749 z m 3.008709,-2.94163 c -0.322148,-0.1748 -0.5374,-0.58513 -0.5374,-1.02444 0,-0.26272 0.07231,-0.41266 0.317074,-0.65742 0.270645,-0.27065 0.381257,-0.31707 0.755382,-0.31707 0.374124,0 0.484736,0.0464 0.755381,0.31707 0.270643,0.27064 0.317074,0.38126 0.317074,0.75539 0,0.37411 -0.04643,0.48474 -0.317074,0.75538 -0.253193,0.25319 -0.389407,0.31632 -0.676112,0.31333 -0.197474,-0.002 -0.473918,-0.0661 -0.614325,-0.14224 z"
         style="fill:#000000;stroke-width:0.0246742"
         id="path1816" />
    </g>
    <text
       xml:space="preserve"
       style="font-size:2.56536px;font-family:Garamond;-inkscape-font-specification:Garamond;fill:#1b91d6;stroke-width:0.0801675"
       x="0.15245673"
       y="2.423116"
       id="text5531"><tspan
         sodipodi:role="line"
         id="tspan5529"
         style="fill:#000000;stroke-width:0.0801675"
         x="0.15245673"
         y="2.423116">MathCodes</tspan></text>
  </g>
</svg>
